<svg xmlns="http://www.w3.org/2000/svg" viewBox="0 0 283.34 86.82"><defs><style>.cls-1{fill:#fd0;}.cls-2{fill:#ed1c24;}</style></defs><g id="Layer_2" data-name="Layer 2"><g id="Layer_1-2" data-name="Layer 1"><rect class="cls-1" width="283.34" height="86.82"/><path class="cls-2" d="M104.76,47.53H97.58V53.8h7.2a3.14,3.14,0,1,0,0-6.27ZM83.2,41.94h30.46A9,9,0,0,1,117,59.24l6.27,9.06H105.93l-4.46-8.42H97.55V68.3H83.2Z"/><polygon class="cls-2" points="187.37 62.5 202.13 62.5 202.13 68.3 172.47 68.3 172.47 41.95 187.37 41.95 187.37 62.5"/><polygon class="cls-2" points="145.98 62.5 164.19 62.5 164.19 68.3 130.8 68.3 130.8 41.95 162.54 41.95 162.54 47.74 145.98 47.74 145.98 52.22 162.54 52.22 162.54 58.02 145.98 58.02 145.98 62.5"/><polygon class="cls-2" points="221.31 62.5 236.07 62.5 236.07 68.3 206.41 68.3 206.41 41.95 221.31 41.95 221.31 62.5"/><path class="cls-2" d="M222,24.22H49.54v6.14H222a3.07,3.07,0,0,0,0-6.14ZM24.43,18.14H249.7a9.21,9.21,0,1,1,0,18.42H49.54V68.3H24.43V18.14Z"/><rect class="cls-2" x="59.19" y="41.94" width="14.35" height="26.35"/><rect class="cls-2" x="240.21" y="41.94" width="14.35" height="26.35"/></g></g></svg>