<?xml version="1.0" encoding="UTF-8"?><svg id="Layer_2" xmlns="http://www.w3.org/2000/svg" viewBox="0 0 473.64 162.34"><defs><style>.cls-1{fill:#fff;}</style></defs><g id="Layer_1-2"><g><g><polygon class="cls-1" points="215.91 70.05 180.83 70.05 180.83 38.51 158.59 38.51 158.59 124.13 180.83 124.13 180.83 89.82 215.91 89.82 215.91 124.13 238.08 124.13 238.08 38.51 215.91 38.51 215.91 70.05"/><path class="cls-1" d="M270.08,71.28c1.87-11.56,7.94-17.6,17.77-17.6s16.71,7.12,17.03,17.6h-34.8Zm17.89-35.02c-24.45,0-40.86,17.77-40.86,44.45s16.22,45.38,41.57,45.38c20.24,0,34.14-9.78,39.35-28.3h-24c-2.16,6.76-7.24,10.16-14.88,10.16-11.47,0-18.35-7.17-18.94-19.6h57.81c0-3,.16-4.06,.16-5.49,0-28.83-15.52-46.6-40.23-46.6"/><path class="cls-1" d="M365.98,37.77c-7.86,1.64-28.04,8.03-28.04,40.45v45.9h22.48v-37.93c0-14.03,1.85-20.61,7.42-24.87,3.4-2.86,8.32-4.46,14.03-4.46,2.36,0,3.38,.18,6.09,.71v-19.44s-8.99-3.05-21.98-.37"/><path class="cls-1" d="M432.42,108.27c-11.84,0-18.75-10.13-18.75-27.04s6.77-27.05,18.75-27.05,18.59,9.8,18.59,26.88-6.78,27.21-18.59,27.21m0-72.03c-25.2,.01-41.42,17.6-41.42,44.99s16.22,44.85,41.42,44.85,41.22-17.64,41.22-44.85-16.24-44.99-41.22-44.99"/></g><g><polygon class="cls-1" points="96.42 138.58 96.42 85.12 61.31 111.71 96.42 138.58"/><polygon class="cls-1" points="0 135.46 35.12 162.34 35.12 51.07 0 23.76 0 135.46"/><polygon class="cls-1" points="61.31 0 61.31 77.81 96.42 52.18 96.42 27.31 61.31 0"/></g></g></g></svg>